<svg width="476" height="128" viewBox="0 0 476 128" fill="none" xmlns="http://www.w3.org/2000/svg">
<path d="M10.9516 110.96C11.3249 109.84 12.5782 106.96 14.7116 102.32C16.8982 97.6267 19.8316 91.3067 23.5116 83.36C27.2449 75.36 31.6182 65.8667 36.6316 54.88C36.8449 54.4533 37.0049 54 37.1116 53.52C37.2716 53.04 37.3516 52.6133 37.3516 52.24C37.3516 51.7067 37.1916 51.28 36.8716 50.96C36.5516 50.64 35.9382 50.48 35.0316 50.48C32.7916 50.48 30.9516 51.1733 29.5116 52.56C28.1249 53.8933 27.0849 55.5467 26.3916 57.52C25.7516 59.4933 25.4316 61.44 25.4316 63.36C25.4316 63.84 25.4582 64.4 25.5116 65.04C25.5649 65.68 25.6449 66.4 25.7516 67.2C24.4716 67.2 23.4049 66.8267 22.5516 66.08C21.7516 65.28 21.1382 64.32 20.7116 63.2C20.2849 62.0267 20.0716 60.9333 20.0716 59.92C20.0716 58.2133 20.5516 56.56 21.5116 54.96C22.5249 53.36 23.8316 51.92 25.4316 50.64C27.0316 49.3067 28.7916 48.2667 30.7116 47.52C32.6849 46.7733 34.6316 46.4 36.5516 46.4C38.5249 46.4 40.2049 46.96 41.5916 48.08C42.9782 49.1467 44.0449 51.12 44.7916 54C45.5382 56.8267 45.9116 60.9067 45.9116 66.24C45.9116 69.7067 45.7782 73.2267 45.5116 76.8C45.2982 80.32 45.0582 83.6267 44.7916 86.72C44.5249 89.8133 44.3916 92.4533 44.3916 94.64C45.4582 91.4933 46.7649 88.16 48.3116 84.64C49.9116 81.0667 51.6182 77.5467 53.4316 74.08C55.2449 70.56 57.0316 67.2533 58.7916 64.16C60.5516 61.0667 62.1249 58.3733 63.5116 56.08C64.9516 53.7333 66.0449 52 66.7916 50.88C67.5382 49.7067 68.2049 48.8267 68.7916 48.24C69.3782 47.6533 70.1782 47.36 71.1916 47.36C71.9382 47.36 73.1116 47.6533 74.7116 48.24C74.2316 49.2533 73.6716 50.88 73.0316 53.12C72.3916 55.3067 71.6982 57.8667 70.9516 60.8C70.1516 64 69.3516 67.52 68.5516 71.36C67.7516 75.1467 67.0316 78.9867 66.3916 82.88C65.7516 86.7733 65.2182 90.48 64.7916 94C64.4182 97.4667 64.2316 100.533 64.2316 103.2C64.2316 104.587 64.2849 105.68 64.3916 106.48C64.5516 107.28 64.7382 107.973 64.9516 108.56C65.2182 109.2 65.5116 110 65.8316 110.96C63.5382 110.96 61.7782 110.613 60.5516 109.92C59.3782 109.227 58.5782 108.107 58.1516 106.56C57.7782 105.067 57.5916 103.067 57.5916 100.56C57.5916 94.64 58.2582 88.4267 59.5916 81.92C60.9782 75.36 62.5782 68.6133 64.3916 61.68C62.8982 63.8133 61.3516 66.3467 59.7516 69.28C58.1516 72.2133 56.5782 75.3067 55.0316 78.56C53.4849 81.8133 52.0182 85.04 50.6316 88.24C49.2449 91.3867 48.0182 94.32 46.9516 97.04C45.8849 99.7067 45.0582 101.947 44.4716 103.76C43.6716 104.027 43.1116 104.16 42.7916 104.16C40.9249 104.16 39.7249 103.04 39.1916 100.8C38.7116 98.5067 38.4716 95.3867 38.4716 91.44C38.4716 88.6133 38.5249 85.6 38.6316 82.4C38.7382 79.1467 38.8449 75.8667 38.9516 72.56C39.0582 69.2 39.1116 66.0267 39.1116 63.04C39.1116 62.24 39.0849 61.44 39.0316 60.64C39.0316 59.84 39.0316 59.0667 39.0316 58.32C34.9782 67.76 31.5382 75.84 28.7116 82.56C25.9382 89.2267 23.5649 94.6667 21.5916 98.88C19.6182 103.04 17.8049 106.08 16.1516 108C14.4982 109.973 12.7649 110.96 10.9516 110.96ZM78.4878 107.76C76.7278 107.76 75.2078 107.173 73.9278 106C72.5945 104.827 71.9278 103.067 71.9278 100.72C71.9278 98.8533 72.3545 96.8267 73.2078 94.64C74.0611 92.4533 75.2345 90.2933 76.7278 88.16C78.2211 86.0267 79.9278 84.1067 81.8478 82.4C83.7678 80.64 85.8211 79.2267 88.0078 78.16C90.1945 77.0933 92.3811 76.56 94.5678 76.56C96.8611 76.56 98.8078 77.1467 100.408 78.32C102.008 79.4933 102.808 81.04 102.808 82.96C102.808 84.4 102.301 85.44 101.288 86.08C100.274 86.72 99.0745 86.9067 97.6878 86.64C97.7945 86.16 97.8745 85.68 97.9278 85.2C98.0345 84.72 98.0878 84.2133 98.0878 83.68C98.0878 82.6133 97.8745 81.6533 97.4478 80.8C97.0211 79.9467 96.1145 79.52 94.7278 79.52C93.2345 79.52 91.7145 80.0267 90.1678 81.04C88.6211 82.0533 87.1278 83.3867 85.6878 85.04C84.3011 86.64 83.0478 88.4267 81.9278 90.4C80.8078 92.32 79.9278 94.2133 79.2878 96.08C78.6478 97.9467 78.3278 99.6267 78.3278 101.12C78.3278 102.827 78.9411 103.68 80.1678 103.68C81.3945 103.68 82.7545 103.093 84.2478 101.92C85.7411 100.693 87.2345 99.1733 88.7278 97.36C90.2745 95.5467 91.7411 93.7067 93.1278 91.84C94.5145 89.92 95.7145 88.2933 96.7278 86.96C96.8878 86.6933 97.1011 86.56 97.3678 86.56C97.5811 86.6133 97.9811 86.7467 98.5678 86.96C99.2078 87.12 99.7945 87.3867 100.328 87.76C100.861 88.1333 101.128 88.6133 101.128 89.2C101.128 89.8933 100.754 90.8533 100.008 92.08C99.2611 93.2533 98.4878 94.5333 97.6878 95.92C96.9411 97.3067 96.5678 98.5867 96.5678 99.76C96.5678 100.453 96.7545 101.12 97.1278 101.76C97.5011 102.347 98.1145 102.64 98.9678 102.64C100.248 102.64 102.034 101.707 104.328 99.84C106.674 97.92 109.048 94.6933 111.448 90.16L112.968 91.68C110.994 96.0533 108.541 99.6 105.608 102.32C102.674 105.04 99.7145 106.4 96.7278 106.4C94.5411 106.4 92.9145 105.707 91.8478 104.32C90.7811 102.933 90.1945 101.44 90.0878 99.84V99.44C87.9545 102 85.9811 104.027 84.1678 105.52C82.4078 107.013 80.5145 107.76 78.4878 107.76ZM118.915 108.08C116.248 108.08 114.088 107.52 112.435 106.4C110.835 105.333 109.688 103.973 108.995 102.32C108.301 100.613 107.955 98.88 107.955 97.12C107.955 95.5733 108.168 94.3733 108.595 93.52C109.021 92.6667 109.555 92.0533 110.195 91.68C110.835 91.2533 111.421 90.9333 111.955 90.72C112.541 90.5067 112.968 90.2667 113.235 90C114.568 88.6133 115.928 87.0133 117.315 85.2C118.755 83.3333 119.981 81.28 120.995 79.04V78.24C120.995 76.1067 121.341 74.6133 122.035 73.76C122.781 72.8533 123.635 72.4 124.595 72.4C125.235 72.4 125.688 72.56 125.955 72.88C126.275 73.2 126.461 73.5733 126.515 74C126.515 74.32 126.435 74.6933 126.275 75.12C126.168 75.5467 126.115 76.1333 126.115 76.88C126.115 78.48 126.488 80.32 127.235 82.4C128.035 84.4267 128.808 86.5867 129.555 88.88C130.355 91.1733 130.755 93.52 130.755 95.92C130.755 96.56 130.728 97.1467 130.675 97.68C130.621 98.2133 130.541 98.72 130.435 99.2C132.088 98.7733 133.715 97.8667 135.315 96.48C136.915 95.04 138.435 92.9333 139.875 90.16L140.835 90.88C139.821 93.92 138.355 96.3733 136.435 98.24C134.515 100.053 132.275 101.173 129.715 101.6C128.861 103.787 127.448 105.413 125.475 106.48C123.555 107.547 121.368 108.08 118.915 108.08ZM124.115 99.04C124.221 98.6667 124.275 98.24 124.275 97.76C124.328 97.2267 124.355 96.8267 124.355 96.56C124.301 94.16 123.981 91.7867 123.395 89.44C122.808 87.0933 122.221 84.6933 121.635 82.24C120.675 83.8933 119.555 85.68 118.275 87.6C116.995 89.52 115.795 91.0667 114.675 92.24C115.528 93.68 116.781 95.04 118.435 96.32C120.088 97.6 121.981 98.5067 124.115 99.04ZM118.355 104.56C119.421 104.56 120.408 104.293 121.315 103.76C122.221 103.227 122.941 102.453 123.475 101.44C121.288 100.96 119.315 100.107 117.555 98.88C115.795 97.6533 114.435 96.4 113.475 95.12C112.728 95.28 112.355 96 112.355 97.28C112.355 99.04 112.861 100.693 113.875 102.24C114.888 103.787 116.381 104.56 118.355 104.56ZM144.882 107.68C142.535 107.68 140.642 106.987 139.202 105.6C137.762 104.213 137.042 102.107 137.042 99.28C137.042 97.0933 137.442 94.3733 138.242 91.12C139.095 87.8667 140.162 84.5067 141.442 81.04C141.068 80.9333 140.615 80.8533 140.082 80.8C139.602 80.6933 139.122 80.5333 138.642 80.32V77.84C139.495 77.9467 140.188 78.0267 140.722 78.08C141.308 78.1333 141.895 78.1867 142.482 78.24C143.602 75.4133 144.802 72.6933 146.082 70.08C147.415 67.4133 148.722 65.04 150.002 62.96C151.335 60.88 152.588 59.2533 153.762 58.08C154.935 56.8533 155.975 56.24 156.882 56.24C157.415 56.24 157.922 56.4533 158.402 56.88C158.882 57.2533 159.122 57.8133 159.122 58.56C159.122 59.6267 158.562 61.1467 157.442 63.12C156.375 65.0933 155.042 67.4133 153.442 70.08C151.842 72.6933 150.295 75.4933 148.802 78.48H151.282C153.628 78.48 155.735 78.4533 157.602 78.4C159.522 78.2933 161.468 78.1333 163.442 77.92V80.56C160.508 80.8267 157.815 81.04 155.362 81.2C152.908 81.36 150.562 81.4667 148.322 81.52H147.362C146.242 84.1333 145.255 86.8267 144.402 89.6C143.602 92.32 143.202 94.9867 143.202 97.6C143.202 99.7867 143.548 101.333 144.242 102.24C144.935 103.147 146.028 103.6 147.522 103.6C150.188 103.6 152.908 102.4 155.682 100C158.508 97.5467 160.962 94.24 163.042 90.08L164.162 90.88C162.775 94.0267 161.042 96.88 158.962 99.44C156.935 102 154.722 104 152.322 105.44C149.922 106.933 147.442 107.68 144.882 107.68ZM169.928 107.52C166.515 107.52 163.875 106.587 162.008 104.72C160.195 102.907 159.288 100.613 159.288 97.84C159.288 95.4933 159.875 93.0133 161.048 90.4C162.275 87.7333 163.902 85.2533 165.928 82.96C167.955 80.6133 170.195 78.72 172.648 77.28C175.102 75.84 177.555 75.12 180.008 75.12C181.395 75.12 182.702 75.4933 183.928 76.24C185.208 76.9333 185.848 78.3467 185.848 80.48C185.848 82.5067 185.262 84.4 184.088 86.16C182.915 87.92 181.342 89.4933 179.368 90.88C177.395 92.2667 175.208 93.4133 172.808 94.32C170.462 95.1733 168.088 95.7333 165.688 96C165.635 96.2133 165.582 96.4533 165.528 96.72C165.528 96.9333 165.528 97.3067 165.528 97.84C165.528 98.1067 165.555 98.5867 165.608 99.28C165.715 99.92 165.955 100.613 166.328 101.36C166.702 102.107 167.315 102.747 168.168 103.28C169.022 103.813 170.195 104.08 171.688 104.08C173.928 104.08 176.168 103.467 178.408 102.24C180.702 100.96 182.835 99.28 184.808 97.2C186.835 95.12 188.515 92.8 189.848 90.24L191.448 91.52C190.008 94.72 188.142 97.52 185.848 99.92C183.608 102.32 181.102 104.187 178.328 105.52C175.608 106.853 172.808 107.52 169.928 107.52ZM166.568 93.04C167.955 92.88 169.502 92.4 171.208 91.6C172.915 90.8 174.542 89.7867 176.088 88.56C177.688 87.3333 178.995 86 180.008 84.56C181.022 83.0667 181.528 81.5733 181.528 80.08C181.528 79.4933 181.422 79.0933 181.208 78.88C180.995 78.6667 180.648 78.56 180.168 78.56C178.942 78.56 177.662 79.0133 176.328 79.92C174.995 80.7733 173.688 81.92 172.408 83.36C171.128 84.7467 169.982 86.2933 168.968 88C167.955 89.7067 167.155 91.3867 166.568 93.04ZM202.714 106.08C200.741 106.08 199.141 105.547 197.914 104.48C196.687 103.467 196.074 102.08 196.074 100.32C196.074 98.8267 196.447 97.2267 197.194 95.52C197.941 93.8133 198.687 92.1333 199.434 90.48C200.234 88.8267 200.634 87.36 200.634 86.08C200.634 84.8533 200.234 83.84 199.434 83.04C198.634 82.1867 197.701 81.4933 196.634 80.96C195.461 83.8933 194.127 86.7467 192.634 89.52C191.194 92.24 190.021 94.3733 189.114 95.92L187.914 93.6C188.661 92.2133 189.647 90.24 190.874 87.68C192.101 85.12 193.274 82.2667 194.394 79.12C193.861 78.5867 193.594 77.8667 193.594 76.96C193.594 75.5733 194.021 74.2667 194.874 73.04C195.727 71.8133 196.554 71.2 197.354 71.2C197.994 71.2 198.447 71.5733 198.714 72.32C199.034 73.0133 199.194 73.4933 199.194 73.76C199.194 74.0267 199.061 74.5067 198.794 75.2C198.581 75.8933 198.421 76.4 198.314 76.72C198.367 77.3067 198.821 77.8933 199.674 78.48C200.581 79.0133 201.594 79.6533 202.714 80.4C203.834 81.1467 204.821 82.08 205.674 83.2C206.527 84.32 206.954 85.7333 206.954 87.44C206.954 88.9867 206.607 90.56 205.914 92.16C205.221 93.76 204.527 95.2533 203.834 96.64C203.141 98.0267 202.794 99.2267 202.794 100.24C202.794 100.987 202.981 101.493 203.354 101.76C203.781 101.973 204.261 102.08 204.794 102.08C206.074 102.08 207.407 101.707 208.794 100.96C210.181 100.16 211.541 99.1467 212.874 97.92C214.207 96.6933 215.381 95.4133 216.394 94.08C217.407 92.6933 218.181 91.44 218.714 90.32L220.634 91.76C219.621 94.0533 218.154 96.32 216.234 98.56C214.314 100.747 212.181 102.56 209.834 104C207.487 105.387 205.114 106.08 202.714 106.08ZM236.977 110.96C232.923 110.96 229.59 110 226.977 108.08C224.417 106.16 222.523 103.68 221.297 100.64C220.123 97.6 219.537 94.4533 219.537 91.2C219.537 86.9867 220.177 82.7733 221.457 78.56C222.737 74.2933 224.497 70.24 226.737 66.4C229.03 62.56 231.617 59.1467 234.497 56.16C237.377 53.1733 240.443 50.8267 243.697 49.12C247.003 47.36 250.283 46.48 253.537 46.48C255.883 46.48 257.857 47.04 259.457 48.16C261.057 49.2267 261.857 51.0933 261.857 53.76C261.857 55.36 261.563 57.1467 260.977 59.12C260.443 61.0933 259.697 63.0133 258.737 64.88C257.83 66.6933 256.79 68.1867 255.617 69.36C254.443 70.5333 253.243 71.12 252.017 71.12C251.483 71.12 250.923 70.9333 250.337 70.56C249.75 70.1867 249.217 69.5467 248.737 68.64C249.537 67.7333 250.443 66.64 251.457 65.36C252.47 64.0267 253.43 62.64 254.337 61.2C255.243 59.7067 255.99 58.2667 256.577 56.88C257.163 55.44 257.457 54.1867 257.457 53.12C257.457 52.16 257.19 51.4133 256.657 50.88C256.123 50.2933 255.19 50 253.857 50C251.51 50 249.083 50.88 246.577 52.64C244.123 54.4 241.75 56.7733 239.457 59.76C237.163 62.6933 235.083 66 233.217 69.68C231.403 73.3067 229.963 77.0667 228.897 80.96C227.83 84.8 227.297 88.4533 227.297 91.92C227.297 94.48 227.67 96.9333 228.417 99.28C229.217 101.573 230.47 103.44 232.177 104.88C233.883 106.373 236.123 107.12 238.897 107.12C241.777 107.12 244.63 106.32 247.457 104.72C250.337 103.12 252.95 101.013 255.297 98.4C257.697 95.7867 259.617 92.9867 261.057 90L263.137 91.36C261.27 94.9333 259.03 98.2133 256.417 101.2C253.803 104.133 250.843 106.48 247.537 108.24C244.283 110.053 240.763 110.96 236.977 110.96ZM264.444 106.56C262.044 106.56 260.391 105.76 259.484 104.16C258.631 102.613 258.204 100.907 258.204 99.04C258.204 97.3333 258.471 95.6 259.004 93.84C259.537 92.0267 260.257 90.3467 261.164 88.8C262.124 87.2533 263.164 86.0267 264.284 85.12C265.457 84.16 266.631 83.68 267.804 83.68C268.177 83.68 268.604 83.76 269.084 83.92C269.617 84.0267 269.991 84.2133 270.204 84.48C269.351 85.5467 268.471 86.9333 267.564 88.64C266.711 90.2933 265.991 92.0267 265.404 93.84C264.871 95.6533 264.604 97.3067 264.604 98.8C264.604 99.8667 264.791 100.747 265.164 101.44C265.591 102.133 266.311 102.48 267.324 102.48C268.337 102.48 269.537 101.92 270.924 100.8C272.364 99.6267 273.724 98.2933 275.004 96.8C273.297 95.2533 272.071 93.5733 271.324 91.76C270.577 89.8933 270.204 87.6533 270.204 85.04C270.204 83.92 270.471 82.64 271.004 81.2C271.591 79.76 272.497 78.5067 273.724 77.44C275.004 76.3733 276.711 75.84 278.844 75.84C281.137 75.84 282.737 76.48 283.644 77.76C284.604 79.04 285.084 80.56 285.084 82.32C285.084 84.2933 284.551 86.5067 283.484 88.96C282.471 91.4133 281.244 93.7333 279.804 95.92C280.444 96.24 281.191 96.4 282.044 96.4C282.844 96.4 283.804 96.2133 284.924 95.84C286.044 95.4667 287.137 94.8533 288.204 94C289.271 93.0933 290.124 91.8933 290.764 90.4L292.204 91.44C291.031 94.16 289.457 96.16 287.484 97.44C285.564 98.6667 283.671 99.28 281.804 99.28C281.111 99.28 280.417 99.2267 279.724 99.12C279.031 98.96 278.391 98.7733 277.804 98.56C275.991 100.693 273.911 102.56 271.564 104.16C269.217 105.76 266.844 106.56 264.444 106.56ZM277.084 94.24C278.364 92.3733 279.457 90.3733 280.364 88.24C281.271 86.1067 281.724 84.1333 281.724 82.32C281.724 79.9733 280.977 78.8 279.484 78.8C278.471 78.8 277.431 79.52 276.364 80.96C275.297 82.4 274.764 84.2133 274.764 86.4C274.764 87.52 274.951 88.88 275.324 90.48C275.751 92.08 276.337 93.3333 277.084 94.24ZM294.21 106.56C291.81 106.56 290.156 105.76 289.25 104.16C288.396 102.613 287.97 100.907 287.97 99.04C287.97 97.3333 288.236 95.6 288.77 93.84C289.303 92.0267 290.023 90.3467 290.93 88.8C291.89 87.2533 292.93 86.0267 294.05 85.12C295.223 84.16 296.396 83.68 297.57 83.68C297.943 83.68 298.37 83.76 298.85 83.92C299.383 84.0267 299.756 84.2133 299.97 84.48C299.116 85.5467 298.236 86.9333 297.33 88.64C296.476 90.2933 295.756 92.0267 295.17 93.84C294.636 95.6533 294.37 97.3067 294.37 98.8C294.37 99.8667 294.556 100.747 294.93 101.44C295.356 102.133 296.076 102.48 297.09 102.48C298.103 102.48 299.303 101.92 300.69 100.8C302.13 99.6267 303.49 98.2933 304.77 96.8C303.063 95.2533 301.836 93.5733 301.09 91.76C300.343 89.8933 299.97 87.6533 299.97 85.04C299.97 83.92 300.236 82.64 300.77 81.2C301.356 79.76 302.263 78.5067 303.49 77.44C304.77 76.3733 306.476 75.84 308.61 75.84C310.903 75.84 312.503 76.48 313.41 77.76C314.37 79.04 314.85 80.56 314.85 82.32C314.85 84.2933 314.316 86.5067 313.25 88.96C312.236 91.4133 311.01 93.7333 309.57 95.92C310.21 96.24 310.956 96.4 311.81 96.4C312.61 96.4 313.57 96.2133 314.69 95.84C315.81 95.4667 316.903 94.8533 317.97 94C319.036 93.0933 319.89 91.8933 320.53 90.4L321.97 91.44C320.796 94.16 319.223 96.16 317.25 97.44C315.33 98.6667 313.436 99.28 311.57 99.28C310.876 99.28 310.183 99.2267 309.49 99.12C308.796 98.96 308.156 98.7733 307.57 98.56C305.756 100.693 303.676 102.56 301.33 104.16C298.983 105.76 296.61 106.56 294.21 106.56ZM306.85 94.24C308.13 92.3733 309.223 90.3733 310.13 88.24C311.036 86.1067 311.49 84.1333 311.49 82.32C311.49 79.9733 310.743 78.8 309.25 78.8C308.236 78.8 307.196 79.52 306.13 80.96C305.063 82.4 304.53 84.2133 304.53 86.4C304.53 87.52 304.716 88.88 305.09 90.48C305.516 92.08 306.103 93.3333 306.85 94.24ZM344.055 107.04C342.402 107.04 340.962 106.507 339.735 105.44C338.509 104.373 337.522 103.04 336.775 101.44C336.029 99.84 335.469 98.2133 335.095 96.56C334.722 94.8533 334.535 93.3867 334.535 92.16C335.282 92 336.215 91.76 337.335 91.44C338.455 91.12 339.602 90.6933 340.775 90.16C341.949 89.5733 342.909 88.88 343.655 88.08C344.455 87.2267 344.855 86.2133 344.855 85.04C344.855 84.08 344.535 83.3067 343.895 82.72C343.309 82.1333 342.455 81.84 341.335 81.84C339.842 81.84 338.429 82.3467 337.095 83.36C335.762 84.32 334.509 85.6 333.335 87.2C332.215 88.8 331.175 90.5333 330.215 92.4C329.309 94.2667 328.482 96.08 327.735 97.84C327.042 99.6 326.455 101.12 325.975 102.4C325.389 104 324.829 105.067 324.295 105.6C323.762 106.187 322.989 106.48 321.975 106.48C321.602 106.48 321.149 106.373 320.615 106.16C320.135 105.947 319.709 105.413 319.335 104.56C319.015 103.707 318.855 102.347 318.855 100.48C318.855 97.2267 319.309 93.6533 320.215 89.76C321.122 85.8667 322.322 81.92 323.815 77.92C325.362 73.8667 327.042 70 328.855 66.32C330.669 62.64 332.509 59.3333 334.375 56.4C336.242 53.4667 337.975 51.1467 339.575 49.44C341.229 47.7333 342.589 46.88 343.655 46.88C344.562 46.88 345.309 47.44 345.895 48.56C346.535 49.6267 346.855 51.0133 346.855 52.72C346.855 54.5333 346.455 56.56 345.655 58.8C344.855 60.9867 343.709 63.2267 342.215 65.52C340.775 67.76 339.042 69.8933 337.015 71.92C334.989 73.9467 332.749 75.68 330.295 77.12C328.802 80.5867 327.655 84.0267 326.855 87.44C326.055 90.8 325.549 93.7867 325.335 96.4C326.295 94.2133 327.389 91.9733 328.615 89.68C329.842 87.3867 331.202 85.2533 332.695 83.28C334.189 81.2533 335.789 79.6267 337.495 78.4C339.255 77.1733 341.122 76.56 343.095 76.56C345.229 76.56 347.095 77.3067 348.695 78.8C350.295 80.2933 351.095 82.16 351.095 84.4C351.095 86 350.669 87.3867 349.815 88.56C348.962 89.7333 347.895 90.72 346.615 91.52C345.389 92.2667 344.135 92.8267 342.855 93.2C341.575 93.5733 340.482 93.7867 339.575 93.84C339.789 94.8 340.109 96.0267 340.535 97.52C341.015 99.0133 341.682 100.347 342.535 101.52C343.389 102.64 344.509 103.2 345.895 103.2C347.229 103.2 348.589 102.587 349.975 101.36C351.415 100.133 352.802 98.5067 354.135 96.48C355.522 94.4533 356.749 92.2133 357.815 89.76L358.935 91.12C358.029 93.7867 356.775 96.3467 355.175 98.8C353.629 101.253 351.895 103.227 349.975 104.72C348.055 106.267 346.082 107.04 344.055 107.04ZM332.615 71.68C334.055 70.4 335.575 68.8267 337.175 66.96C338.775 65.04 340.135 63.0133 341.255 60.88C342.429 58.6933 343.042 56.6133 343.095 54.64V54.4C342.562 54.6133 341.709 55.5467 340.535 57.2C339.415 58.8 338.162 60.8533 336.775 63.36C335.389 65.8667 334.002 68.64 332.615 71.68Z" fill="#AB2020"/>
<path d="M452.92 106.34C431.891 102.776 410.353 102.776 389.324 106.34C388.99 106.397 388.647 106.384 388.318 106.303C387.99 106.221 387.685 106.073 387.424 105.869C387.164 105.664 386.954 105.409 386.81 105.12C386.666 104.831 386.591 104.515 386.59 104.196V77.1071H455.653V104.196C455.653 104.515 455.578 104.831 455.434 105.12C455.29 105.409 455.08 105.664 454.82 105.869C454.559 106.073 454.254 106.221 453.925 106.303C453.597 106.384 453.254 106.397 452.92 106.34Z" fill="#AB2020"/>
<path d="M449.333 57.1059C447.738 57.1045 446.155 57.3537 444.647 57.8431C442.449 53.3597 438.936 49.559 434.52 46.8869C430.105 44.2148 424.971 42.7823 419.72 42.7573C414.469 42.7324 409.319 44.1161 404.876 46.7461C400.432 49.3761 396.878 53.1433 394.631 57.6055C392.419 57.022 390.09 56.947 387.841 57.3866C385.591 57.8263 383.487 58.7678 381.706 60.1318C379.924 61.4958 378.517 63.2424 377.604 65.2245C376.69 67.2065 376.296 69.366 376.456 71.5209C376.616 73.6759 377.324 75.7632 378.521 77.6071C379.718 79.4509 381.368 80.9973 383.334 82.116C385.299 83.2347 387.522 83.8929 389.815 84.0351C392.107 84.1774 394.403 83.7995 396.507 82.9334C399.037 86.5578 402.493 89.5286 406.558 91.5743C410.623 93.6199 415.169 94.6754 419.78 94.6442C424.391 94.613 428.92 93.4962 432.953 91.3957C436.987 89.2952 440.396 86.2781 442.87 82.6198C444.803 83.5372 446.932 84.0312 449.097 84.0645C451.262 84.0978 453.407 83.6697 455.371 82.8123C457.335 81.9549 459.066 80.6904 460.436 79.1138C461.806 77.5372 462.778 75.6894 463.28 73.709C463.781 71.7286 463.799 69.6672 463.332 67.6793C462.865 65.6915 461.926 63.8289 460.584 62.2313C459.242 60.6337 457.532 59.3426 455.584 58.4549C453.635 57.5672 451.498 57.106 449.333 57.1059Z" fill="#AB2020"/>
<path d="M392.14 68.7005H391.832C391.821 64.8412 392.73 61.0286 394.491 57.5424L394.769 57.6665C393.028 61.1139 392.13 64.8841 392.14 68.7005Z" fill="#3F3D56"/>
<path d="M447.329 68.7006H447.021C447.03 64.9722 446.173 61.2868 444.509 57.9025L444.789 57.7811C446.472 61.2034 447.338 64.9302 447.329 68.7006Z" fill="#3F3D56"/>
<path d="M386.628 89.7127L386.553 89.4313C386.64 89.4111 395.402 87.3877 408.243 86.3838C420.095 85.4572 437.948 85.2337 455.691 89.4314L455.616 89.7125C437.916 85.5253 420.102 85.7478 408.275 86.6722C395.457 87.6739 386.714 89.6924 386.628 89.7127Z" fill="#3F3D56"/>
<path d="M386.628 93.626L386.553 93.3446C386.64 93.3244 395.402 91.301 408.243 90.2971C420.095 89.3705 437.948 89.147 455.691 93.3447L455.616 93.6258C437.916 89.4386 420.102 89.6614 408.275 90.5855C395.457 91.5872 386.714 93.6057 386.628 93.626Z" fill="#3F3D56"/>
<path d="M386.628 97.5393L386.553 97.2579C386.64 97.2376 395.402 95.2143 408.243 94.2103C420.095 93.2838 437.948 93.0603 455.691 97.258L455.616 97.5391C437.916 93.3519 420.102 93.5747 408.275 94.4988C395.457 95.5005 386.714 97.519 386.628 97.5393Z" fill="#3F3D56"/>
<path d="M373.512 89.4309C373.684 89.4309 373.823 89.3659 373.823 89.2857C373.823 89.2055 373.684 89.1405 373.512 89.1405C373.341 89.1405 373.202 89.2055 373.202 89.2857C373.202 89.3659 373.341 89.4309 373.512 89.4309Z" fill="#E6E6E6"/>
<path d="M374.971 89.4309C375.142 89.4309 375.281 89.3659 375.281 89.2857C375.281 89.2055 375.142 89.1405 374.971 89.1405C374.799 89.1405 374.66 89.2055 374.66 89.2857C374.66 89.3659 374.799 89.4309 374.971 89.4309Z" fill="#E6E6E6"/>
<path d="M374.242 89.7738C374.413 89.7738 374.552 89.7088 374.552 89.6286C374.552 89.5484 374.413 89.4834 374.242 89.4834C374.07 89.4834 373.931 89.5484 373.931 89.6286C373.931 89.7088 374.07 89.7738 374.242 89.7738Z" fill="#E6E6E6"/>
<path d="M371.325 89.7738C371.496 89.7738 371.635 89.7088 371.635 89.6286C371.635 89.5484 371.496 89.4834 371.325 89.4834C371.153 89.4834 371.014 89.5484 371.014 89.6286C371.014 89.7088 371.153 89.7738 371.325 89.7738Z" fill="#E6E6E6"/>
<path d="M372.054 89.4309C372.225 89.4309 372.364 89.3659 372.364 89.2857C372.364 89.2055 372.225 89.1405 372.054 89.1405C371.882 89.1405 371.743 89.2055 371.743 89.2857C371.743 89.3659 371.882 89.4309 372.054 89.4309Z" fill="#E6E6E6"/>
<path d="M468.237 89.4309C468.408 89.4309 468.547 89.3659 468.547 89.2857C468.547 89.2055 468.408 89.1405 468.237 89.1405C468.065 89.1405 467.926 89.2055 467.926 89.2857C467.926 89.3659 468.065 89.4309 468.237 89.4309Z" fill="#E6E6E6"/>
<path d="M464.59 89.7738C464.762 89.7738 464.901 89.7088 464.901 89.6286C464.901 89.5484 464.762 89.4834 464.59 89.4834C464.419 89.4834 464.28 89.5484 464.28 89.6286C464.28 89.7088 464.419 89.7738 464.59 89.7738Z" fill="#E6E6E6"/>
</svg>
